<?xml version="1.0" encoding="utf-8"?>
<!-- Generator: Adobe Illustrator 22.1.0, SVG Export Plug-In . SVG Version: 6.00 Build 0)  -->
<svg version="1.1" id="Слой_1" xmlns="http://www.w3.org/2000/svg" xmlns:xlink="http://www.w3.org/1999/xlink" x="0px" y="0px"
	 viewBox="0 0 115 75" style="enable-background:new 0 0 115 75;" xml:space="preserve">
<style type="text/css">
	.st0{fill:#FFFFFF;}
</style>
<g>
	<path class="st0" d="M114.2,62.7L102.4,51c-3.3,3.3-7.9,5.4-13,5.4c-7.1,0-13.3-4-16.4-9.8c-1.4,6-4.3,11.5-8.4,16.3
		C71,69.1,79.8,73,89.4,73C99.1,73,107.8,69.1,114.2,62.7z"/>
	<path class="st0" d="M36,73c9.7,0,18.4-3.9,24.7-10.3c0.7-0.7,1.3-1.4,1.9-2.1c5.2-6.1,8.4-13.8,8.4-22.4c0,0,0,0,0,0
		c0-10.1,8.2-18.6,18.3-18.6c5.1,0,9.6,2.1,13,5.4l11.8-11.8C107.8,6.9,99.1,3,89.4,3c-19.3,0-35,16-35,35.3c0,5.1-2.2,9.4-5.5,12.7
		c-3.3,3.3-7.9,5.4-13,5.4c-10.1,0-18.3-7.9-18.3-18.1S25.9,19.7,36,19.7V3C16.7,3,1,19,1,38.3S16.7,73,36,73z"/>
</g>
</svg>
